<svg xmlns="http://www.w3.org/2000/svg" enable-background="new 0 0 24 24" viewBox="0 0 24 24" id="microsoft-onenote"><path d="M13.5,23.625c-0.034,0-0.068-0.002-0.102-0.007l-12.75-1.75C0.276,21.817,0,21.5,0,21.125v-18c0-0.369,0.269-0.684,0.634-0.741l12.75-2c0.218-0.036,0.437,0.028,0.604,0.171s0.263,0.351,0.263,0.57v21.75c0,0.217-0.094,0.423-0.257,0.565C13.855,23.56,13.68,23.625,13.5,23.625z M1.5,20.471l11.25,1.544V2.002L1.5,3.767V20.471z"></path><path d="M21.75,22.125H13.5c-0.414,0-0.75-0.336-0.75-0.75v-18.5c0-0.414,0.336-0.75,0.75-0.75h8.25c0.414,0,0.75,0.336,0.75,0.75v1.518C23.347,4.515,24,5.245,24,6.125v2c0,0.88-0.653,1.61-1.5,1.732v11.518C22.5,21.789,22.164,22.125,21.75,22.125z M14.25,20.625H21v-11.5c0-0.414,0.336-0.75,0.75-0.75h0.5c0.136,0,0.25-0.114,0.25-0.25v-2c0-0.136-0.114-0.25-0.25-0.25h-0.5c-0.414,0-0.75-0.336-0.75-0.75v-1.5h-6.75V20.625z"></path><path d="M19.25 6.625h-3.5c-.414 0-.75-.336-.75-.75s.336-.75.75-.75h3.5c.414 0 .75.336.75.75S19.664 6.625 19.25 6.625zM19.25 9.625h-3.5c-.414 0-.75-.336-.75-.75s.336-.75.75-.75h3.5c.414 0 .75.336.75.75S19.664 9.625 19.25 9.625zM19.25 12.625h-3.5c-.414 0-.75-.336-.75-.75s.336-.75.75-.75h3.5c.414 0 .75.336.75.75S19.664 12.625 19.25 12.625zM19.25 15.625h-3.5c-.414 0-.75-.336-.75-.75s.336-.75.75-.75h3.5c.414 0 .75.336.75.75S19.664 15.625 19.25 15.625zM19.25 18.625h-3.5c-.414 0-.75-.336-.75-.75s.336-.75.75-.75h3.5c.414 0 .75.336.75.75S19.664 18.625 19.25 18.625zM10 16.875c-.231 0-.456-.107-.6-.3l-4.65-6.2v5.75c0 .414-.336.75-.75.75s-.75-.336-.75-.75v-8c0-.323.207-.609.513-.711C4.069 7.312 4.406 7.417 4.6 7.675l4.65 6.2v-5.75c0-.414.336-.75.75-.75s.75.336.75.75v8c0 .323-.207.609-.513.711C10.159 16.862 10.079 16.875 10 16.875zM22.25 14.875h-.5c-.414 0-.75-.336-.75-.75s.336-.75.75-.75h.5c.136 0 .25-.114.25-.25v-2c0-.136-.114-.25-.25-.25h-.5c-.414 0-.75-.336-.75-.75s.336-.75.75-.75h.5c.965 0 1.75.785 1.75 1.75v2C24 14.09 23.215 14.875 22.25 14.875z"></path><path d="M22.25,19.875h-0.5c-0.414,0-0.75-0.336-0.75-0.75s0.336-0.75,0.75-0.75h0.5c0.136,0,0.25-0.114,0.25-0.25v-2c0-0.136-0.114-0.25-0.25-0.25h-0.5c-0.414,0-0.75-0.336-0.75-0.75s0.336-0.75,0.75-0.75h0.5c0.965,0,1.75,0.785,1.75,1.75v2C24,19.09,23.215,19.875,22.25,19.875z"></path></svg>